<svg aria-hidden="true" style="position: absolute; width: 0; height: 0; overflow: hidden;" version="1.1" xmlns="http://www.w3.org/2000/svg" xmlns:xlink="http://www.w3.org/1999/xlink">
<defs>
<symbol id="icon-arrow-top" viewBox="0 0 30 32">
<path d="M6.495 17.677c-0.678 0.625-1.587 1.009-2.586 1.009-2.108 0-3.818-1.709-3.818-3.818 0-1.019 0.4-1.945 1.051-2.63l-0.002 0.002 11.315-11.143c0.689-0.678 1.634-1.096 2.677-1.096s1.989 0.418 2.678 1.096l-0-0 11.096 10.922c0.665 0.686 1.075 1.623 1.075 2.655 0 2.108-1.709 3.818-3.818 3.818-1.009 0-1.926-0.391-2.608-1.030l0.002 0.002-4.688-4.607-0.076 15.409c-0.026 5.021-7.661 4.948-7.638-0.065l0.078-15.18-4.74 4.656z"></path>
</symbol>
</defs>
</svg>
